<svg width="54" height="54" viewBox="0 0 54 54" fill="none" xmlns="http://www.w3.org/2000/svg">
<path d="M11.25 47.25C10.0125 47.25 8.95312 46.8094 8.07187 45.9281C7.19062 45.0469 6.75 43.9875 6.75 42.75V33.75H11.25V42.75H42.75V11.25H11.25V20.25H6.75V11.25C6.75 10.0125 7.19062 8.95312 8.07187 8.07187C8.95312 7.19062 10.0125 6.75 11.25 6.75H42.75C43.9875 6.75 45.0469 7.19062 45.9281 8.07187C46.8094 8.95312 47.25 10.0125 47.25 11.25V42.75C47.25 43.9875 46.8094 45.0469 45.9281 45.9281C45.0469 46.8094 43.9875 47.25 42.75 47.25H11.25ZM23.625 38.25L20.475 34.9875L26.2125 29.25H6.75V24.75H26.2125L20.475 19.0125L23.625 15.75L34.875 27L23.625 38.25Z" fill="#5F6368"/>
</svg>
